<svg width="213" height="48" fill="none" xmlns="http://www.w3.org/2000/svg"><g clip-path="url(#clip0)"><path d="M144.446 15.115c-3.236-3.659-7.483-5.512-12.624-5.512-5.364 0-9.823 1.774-13.252 5.274-3.404 3.473-5.13 7.905-5.13 13.174 0 5.268 1.754 9.727 5.212 13.254 3.516 3.445 8.082 5.194 13.57 5.194 6.737 0 11.899-2.63 15.345-7.818l-6.531-3.824c-1.817 2.874-4.658 4.271-8.682 4.271-5.407 0-9.33-2.648-10.764-7.266a.15.15 0 01.143-.195h27.272l.124-.813c.139-.906.209-1.822.21-2.738 0-5.104-1.646-9.479-4.893-13.001zm-3.156 9.525a.148.148 0 01-.053.043.147.147 0 01-.066.015H121.7a.148.148 0 01-.147-.122.133.133 0 01.003-.069c1.326-4.719 5.164-7.536 10.266-7.536 4.815 0 8.275 2.748 9.495 7.54a.14.14 0 01.001.068.141.141 0 01-.028.061zM155.183 9.603v36.03h7.702v-18.58c0-3.358.884-5.702 2.702-7.169 1.86-1.498 4.037-2.17 6.669-2.05l1.003.047V9.868h-.958c-1.512-.026-5.435.145-9.194 2.187a.15.15 0 01-.222-.132v-2.32h-7.702zM212.676 29.313a42.263 42.263 0 00-.261-3.454l-.035-.267a16.01 16.01 0 00-.558-2.724.137.137 0 01-.041-.066 18.61 18.61 0 00-7.068-9.849 18.367 18.367 0 00-10.661-3.398c-.2 0-.401.014-.596.028-.106.008-.213.016-.32.022-.284.005-.692.019-1.05.057-4.393.29-8.207 2.092-11.341 5.355-3.443 3.583-5.189 7.968-5.189 13.034a18.44 18.44 0 0016.541 18.39 18.367 18.367 0 0012.616-3.293.149.149 0 01.156-.01.15.15 0 01.081.133v2.363l7.593-.003c.169-8.84.17-15.079.133-16.318zm-10.841 6.577l-.002.001c-2.092 2.09-4.631 3.105-7.763 3.105-3.09 0-5.605-1.014-7.69-3.1-2.102-2.163-3.123-4.729-3.123-7.845 0-3.134 1.021-5.68 3.122-7.781 2.07-2.13 4.586-3.166 7.692-3.166 3.15 0 5.691 1.04 7.769 3.178 2.093 2.093 3.11 4.634 3.11 7.768 0 3.113-1.019 5.677-3.115 7.84zM108.062 45.634v-21.64c0-8.608-5.41-14.391-13.462-14.391-4.358 0-7.814 1.58-10.272 4.695a.156.156 0 01-.121.057.152.152 0 01-.12-.063 11.107 11.107 0 00-3.02-2.905c-2.553-1.636-5.042-1.726-6.689-1.785a18.101 18.101 0 00-8.727 1.958 14.283 14.283 0 00-4.051 3.107c-3.28 3.601-3.832 8.076-3.869 10.423v20.543h7.702V26.188c0-5.73 2.824-9.15 7.555-9.15 3.871 0 6.092 2.607 6.092 7.155v21.44h7.702V26.189c0-4.175 1.252-9.15 7.22-9.15 4.04 0 6.358 2.607 6.358 7.155v21.44h7.702z" fill="#fff"/><path d="M41.328 32.11c2.601-11.217-4.383-22.419-15.6-25.02C14.511 4.49 3.31 11.475.71 22.69c-2.6 11.217 4.384 22.418 15.6 25.02 11.217 2.6 22.418-4.384 25.02-15.6z" fill="#965087"/><path d="M48.318 14.205C49.283 7.42 44.563 1.137 37.778.173 30.992-.79 24.71 3.928 23.746 10.713c-.964 6.786 3.755 13.069 10.54 14.033 6.786.964 13.068-3.755 14.032-10.54z" fill="#5A6487"/><path fill-rule="evenodd" clip-rule="evenodd" d="M41.521 23.59c-1.471-7.898-7.466-14.569-15.793-16.5a21.231 21.231 0 00-.805-.17 12.398 12.398 0 00-1.177 3.794c-.964 6.785 3.755 13.068 10.54 14.032 2.572.365 5.07-.086 7.235-1.156z" fill="#351F47"/></g><defs><clipPath id="clip0"><path fill="#fff" d="M0 0h212.695v48H0z"/></clipPath></defs></svg>