<svg viewBox="0 0 232 244" width="232" height="244" fill="none" xmlns="http://www.w3.org/2000/svg"><g clip-path="url(#clip0)"><path d="M182.96 113.052c-15.9 0-28.465 5.756-37.434 17.128a40.419 40.419 0 00-11.033-10.606c-9.096-5.83-18.042-6.293-24.37-6.522-14.056-.511-25.258 3.882-31.706 7.116a52.184 52.184 0 00-14.754 11.318c-12.833 14.095-13.978 31.613-14.078 37.922V244h28.832v-70.63c0-20.311 9.971-32.436 26.675-32.436 13.602 0 21.406 9.201 21.406 25.246V244h28.832v-70.63c0-14.798 4.418-32.436 25.473-32.436 14.215 0 22.366 9.201 22.366 25.246V244H232v-78.538c0-31.349-19.71-52.41-49.04-52.41z" fill="#5A6487"/><path d="M80.701 185.875c44.57 0 80.702-36.146 80.702-80.733 0-44.588-36.132-80.733-80.702-80.733S0 60.554 0 105.142c0 44.587 36.131 80.733 80.701 80.733z" fill="#965087"/><path d="M171.733 82.035c18.759-18.767 18.759-49.193 0-67.96-18.76-18.767-49.175-18.767-67.934 0-18.76 18.766-18.76 49.193 0 67.96 18.759 18.767 49.174 18.767 67.934 0z" fill="#5A6487"/></g><defs><clipPath id="clip0"><path fill="#fff" d="M0 0h232v244H0z"/></clipPath></defs></svg>