<svg width="213" height="48" fill="none" xmlns="http://www.w3.org/2000/svg"><g clip-path="url(#clip0)"><path d="M144.446 15.114c-3.236-3.658-7.483-5.512-12.624-5.512-5.364 0-9.823 1.775-13.252 5.274-3.404 3.474-5.13 7.905-5.13 13.174 0 5.269 1.754 9.727 5.212 13.255 3.516 3.445 8.082 5.193 13.57 5.193 6.737 0 11.899-2.63 15.345-7.817l-6.531-3.825c-1.817 2.874-4.658 4.272-8.682 4.272-5.407 0-9.33-2.649-10.764-7.266a.15.15 0 01.143-.195h27.272l.124-.814c.139-.906.209-1.821.21-2.738 0-5.103-1.646-9.478-4.893-13zm-3.156 9.526a.148.148 0 01-.053.043.147.147 0 01-.066.015H121.7a.148.148 0 01-.147-.122.133.133 0 01.003-.069c1.326-4.72 5.164-7.536 10.266-7.536 4.815 0 8.275 2.748 9.495 7.54a.14.14 0 01.001.067.141.141 0 01-.028.062zM155.183 9.602v36.031h7.702v-18.58c0-3.358.884-5.703 2.702-7.17 1.86-1.497 4.037-2.17 6.669-2.049l1.003.047V9.867h-.958c-1.512-.026-5.435.145-9.194 2.188a.152.152 0 01-.149-.003.149.149 0 01-.073-.13v-2.32h-7.702zM212.676 29.313a42.263 42.263 0 00-.261-3.454l-.035-.268a16.01 16.01 0 00-.558-2.724.138.138 0 01-.041-.066 18.61 18.61 0 00-7.068-9.848 18.367 18.367 0 00-10.661-3.399c-.2 0-.401.015-.596.029-.106.008-.213.015-.32.021-.284.006-.692.02-1.05.057-4.393.29-8.207 2.092-11.341 5.355-3.443 3.584-5.189 7.969-5.189 13.034a18.44 18.44 0 0016.541 18.39 18.367 18.367 0 0012.616-3.293.149.149 0 01.215.045c.015.024.022.05.022.078v2.363l7.593-.002c.169-8.841.17-15.079.133-16.318zm-10.841 6.576l-.002.002c-2.092 2.09-4.631 3.105-7.763 3.105-3.09 0-5.605-1.014-7.69-3.1-2.102-2.163-3.123-4.73-3.123-7.846 0-3.134 1.021-5.679 3.122-7.78 2.07-2.13 4.586-3.167 7.692-3.167 3.15 0 5.691 1.04 7.769 3.179 2.093 2.092 3.11 4.633 3.11 7.767 0 3.114-1.019 5.678-3.115 7.84zM108.062 45.633v-21.64c0-8.608-5.41-14.39-13.462-14.39-4.358 0-7.814 1.579-10.272 4.694a.155.155 0 01-.121.058.152.152 0 01-.12-.064 11.107 11.107 0 00-3.02-2.904C78.514 9.75 76.025 9.66 74.378 9.6a18.1 18.1 0 00-8.727 1.96 14.28 14.28 0 00-4.051 3.106c-3.28 3.601-3.832 8.076-3.869 10.423v20.542h7.702V26.187c0-5.73 2.824-9.15 7.555-9.15 3.871 0 6.092 2.608 6.092 7.155v21.441h7.702V26.187c0-4.174 1.252-9.15 7.22-9.15 4.04 0 6.358 2.608 6.358 7.155v21.441h7.702zM41.158 31.86c2.6-11.216-4.384-22.417-15.6-25.018C14.34 4.242 3.14 11.226.539 22.442c-2.6 11.217 4.384 22.418 15.6 25.019 11.217 2.6 22.418-4.384 25.019-15.6z" fill="#965087"/><path d="M47.877 14.155C48.84 7.37 44.12 1.088 37.335.123c-6.785-.964-13.068 3.755-14.032 10.54-.964 6.786 3.755 13.069 10.54 14.033 6.786.964 13.068-3.755 14.032-10.54z" fill="#5A6487"/></g><defs><clipPath id="clip0"><path fill="#fff" d="M0 0h212.695v48H0z"/></clipPath></defs></svg>